<svg width="61" height="47" viewBox="0 0 61 47" fill="none" xmlns="http://www.w3.org/2000/svg">
<path d="M11.8646 46.3829V43.2942C11.8646 42.1097 11.1437 41.3378 9.96044 41.3378C9.33897 41.3378 8.67399 41.5441 8.21037 42.2078C7.84992 41.6411 7.34032 41.3378 6.56348 41.3378C6.27465 41.3253 5.98723 41.3846 5.72693 41.5104C5.46664 41.6362 5.2416 41.8246 5.07195 42.0587V41.4372H4.09375V46.3792H5.07195V43.5515C5.07195 42.6814 5.58652 42.265 6.30743 42.265C7.02834 42.265 7.43975 42.7286 7.43975 43.5515V46.3829H8.41795V43.5515C8.41795 42.6814 8.93252 42.265 9.65343 42.265C10.3743 42.265 10.7858 42.7286 10.7858 43.5515V46.3829H11.8646ZM27.9259 41.4919H26.1237V40.0004H25.148V41.4919H24.1188V42.362H25.148V44.6838C25.148 45.8161 25.5594 46.4861 26.7949 46.4861C27.2629 46.4763 27.7215 46.3526 28.131 46.1256L27.8215 45.2555C27.5438 45.4291 27.2217 45.5185 26.8943 45.5128C26.3797 45.5128 26.1224 45.2033 26.1224 44.6888V42.3222H27.9247V41.4981L27.9259 41.4919ZM37.0889 41.3378C36.8225 41.3318 36.559 41.3952 36.3244 41.5215C36.0898 41.6479 35.8919 41.833 35.7502 42.0587V41.4372H34.7721V46.3792H35.7502V43.6037C35.7502 42.7796 36.1617 42.265 36.8316 42.265C37.0577 42.2742 37.282 42.3088 37.5003 42.3682L37.8098 41.4409C37.5738 41.3814 37.3322 41.3469 37.0889 41.3378ZM23.2413 41.8524C22.7267 41.4919 22.0058 41.3378 21.2339 41.3378C19.9984 41.3378 19.2266 41.9046 19.2266 42.8828C19.2266 43.7068 19.7934 44.1692 20.8735 44.3246L21.3881 44.3755C21.9548 44.4787 22.3153 44.685 22.3153 44.9423C22.3153 45.3028 21.9039 45.5638 21.1308 45.5638C20.5404 45.5759 19.9623 45.3953 19.4839 45.0492L18.9693 45.8211C19.6902 46.3357 20.5652 46.4425 21.0823 46.4425C22.5241 46.4425 23.296 45.7738 23.296 44.8466C23.296 43.9766 22.6745 43.5602 21.5969 43.4048L21.0823 43.3538C20.6187 43.3029 20.2122 43.1475 20.2122 42.8393C20.2122 42.4788 20.6236 42.2178 21.1904 42.2178C21.8119 42.2178 22.4259 42.4751 22.7354 42.6292L23.2413 41.8524ZM38.1703 43.9119C38.1703 45.4034 39.1485 46.4861 40.7444 46.4861C41.4653 46.4861 41.9799 46.3319 42.4945 45.9193L41.9799 45.1474C41.6155 45.4425 41.1622 45.6058 40.6934 45.611C39.8234 45.611 39.1485 44.9423 39.1485 43.9641C39.1485 42.9859 39.8147 42.3222 40.6934 42.3222C41.1622 42.3274 41.6155 42.4908 41.9799 42.7858L42.4945 42.0139C41.9799 41.6025 41.4653 41.4472 40.7444 41.4472C39.1994 41.344 38.1703 42.4254 38.1703 43.9181V43.9119ZM31.2719 41.3378C29.8301 41.3378 28.8519 42.3669 28.8519 43.9119C28.8519 45.4569 29.8811 46.4861 31.3738 46.4861C32.1001 46.5014 32.8093 46.2651 33.3812 45.8173L32.8666 45.0964C32.453 45.417 31.9479 45.5972 31.4248 45.611C30.7561 45.611 30.0352 45.1996 29.9333 44.3246H33.5888V43.9132C33.5888 42.3682 32.6615 41.339 31.2719 41.339V41.3378ZM31.221 42.265C31.9419 42.265 32.4565 42.7286 32.5074 43.5005H29.8314C29.9855 42.7796 30.4528 42.265 31.221 42.265ZM17.8879 43.9119V41.4409H16.9097V42.0624C16.5493 41.5988 16.0397 41.3415 15.3138 41.3415C13.9242 41.3415 12.8938 42.4229 12.8938 43.9156C12.8938 45.4084 13.9229 46.4898 15.3138 46.4898C16.0347 46.4898 16.5493 46.2325 16.9097 45.7689V46.3903H17.8879V43.9119ZM13.9242 43.9119C13.9242 42.9847 14.491 42.265 15.4692 42.265C16.3964 42.265 16.9607 42.9859 16.9607 43.9119C16.9607 44.8901 16.3392 45.5588 15.4692 45.5588C14.491 45.6098 13.9242 44.8379 13.9242 43.9119ZM51.9682 41.3378C51.7017 41.3318 51.4383 41.3952 51.2037 41.5215C50.969 41.6479 50.7712 41.833 50.6295 42.0587V41.4372H49.6513V46.3792H50.6283V43.6037C50.6283 42.7796 51.0397 42.265 51.7096 42.265C51.9357 42.2742 52.16 42.3088 52.3783 42.3682L52.6878 41.4409C52.4518 41.3814 52.2102 41.3469 51.9669 41.3378H51.9682ZM48.1585 43.9119V41.4409H47.1804V42.0624C46.8199 41.5988 46.3103 41.3415 45.5844 41.3415C44.1948 41.3415 43.1644 42.4229 43.1644 43.9156C43.1644 45.4084 44.1936 46.4898 45.5844 46.4898C46.3053 46.4898 46.8199 46.2325 47.1804 45.7689V46.3903H48.1585V43.9119ZM44.1948 43.9119C44.1948 42.9847 44.7616 42.265 45.7398 42.265C46.667 42.265 47.2313 42.9859 47.2313 43.9119C47.2313 44.8901 46.6098 45.5588 45.7398 45.5588C44.7616 45.6098 44.1948 44.8379 44.1948 43.9119ZM58.0946 43.9119V39.4846H57.1164V42.0587C56.756 41.5951 56.2464 41.3378 55.5205 41.3378C54.1309 41.3378 53.1005 42.4191 53.1005 43.9119C53.1005 45.4047 54.1296 46.4861 55.5205 46.4861C56.2414 46.4861 56.756 46.2288 57.1164 45.7651V46.3866H58.0946V43.9119ZM54.1309 43.9119C54.1309 42.9847 54.6977 42.265 55.6759 42.265C56.6031 42.265 57.1674 42.9859 57.1674 43.9119C57.1674 44.8901 56.5459 45.5588 55.6759 45.5588C54.6964 45.611 54.1296 44.8392 54.1296 43.9119H54.1309Z" fill="black"/>
<path d="M22.1094 3.96387H39.9729V33.1009H22.1094V3.96387Z" fill="#FF5F00"/>
<path d="M23.9108 18.5323C23.9114 15.7293 24.5461 12.9627 25.7674 10.4398C26.9888 7.91687 28.765 5.70293 30.9632 3.96375C28.2295 1.81435 24.9461 0.477509 21.4884 0.106042C18.0308 -0.265425 14.5383 0.343474 11.4104 1.86313C8.28246 3.38279 5.64521 5.75189 3.80012 8.69961C1.95503 11.6473 0.976562 15.0547 0.976562 18.5323C0.976562 22.0098 1.95503 25.4172 3.80012 28.3649C5.64521 31.3127 8.28246 33.6818 11.4104 35.2014C14.5383 36.7211 18.0308 37.33 21.4884 36.9585C24.9461 36.5871 28.2295 35.2502 30.9632 33.1008C28.765 31.3616 26.9888 29.1477 25.7674 26.6248C24.5461 24.1018 23.9114 21.3353 23.9108 18.5323Z" fill="#EB001B"/>
<path d="M60.9783 18.5322C60.9809 22.0072 60.0053 25.4128 58.1632 28.3594C56.3212 31.306 53.687 33.6747 50.5619 35.1946C47.4369 36.7145 43.9472 37.3241 40.492 36.9538C37.0367 36.5835 33.7554 35.2482 31.0234 33.1007C33.2222 31.362 34.9988 29.1481 36.2202 26.6251C37.4416 24.1021 38.0761 21.3353 38.0761 18.5322C38.0761 15.7291 37.4416 12.9623 36.2202 10.4393C34.9988 7.91622 33.2222 5.70237 31.0234 3.96365C33.7554 1.81611 37.0367 0.480833 40.492 0.110543C43.9472 -0.259747 47.4369 0.349901 50.5619 1.86976C53.687 3.38961 56.3212 5.75832 58.1632 8.70494C60.0053 11.6516 60.9809 15.0572 60.9783 18.5322Z" fill="#F79E1B"/>
</svg>
