<svg width="61" height="17" viewBox="0 0 61 17" fill="none" xmlns="http://www.w3.org/2000/svg">
<path d="M11.1328 1.02363C10.3807 0.506625 9.39936 0.247498 8.18869 0.247498H3.50165C3.13051 0.247498 2.92546 0.433113 2.88651 0.803986L0.982539 12.7557C0.962751 12.8731 0.99212 12.9805 1.07038 13.0781C1.14819 13.1759 1.24605 13.2245 1.36326 13.2245H3.58958C3.98006 13.2245 4.19469 13.0393 4.23408 12.668L4.76129 9.44582C4.78054 9.28967 4.84922 9.1627 4.96643 9.06492C5.08355 8.96732 5.23003 8.90348 5.4058 8.87429C5.58157 8.84528 5.7473 8.8306 5.90382 8.8306C6.05989 8.8306 6.24532 8.84053 6.46049 8.85996C6.67511 8.87939 6.81193 8.88897 6.87058 8.88897C8.54999 8.88897 9.86819 8.41576 10.8253 7.46825C11.7819 6.52128 12.2608 5.20809 12.2608 3.52814C12.2608 2.37595 11.8844 1.54117 11.1328 1.02336V1.02363ZM8.71617 4.61238C8.61822 5.29601 8.36464 5.74497 7.95455 5.95986C7.54437 6.17503 6.95851 6.28212 6.19697 6.28212L5.23021 6.31131L5.72832 3.17679C5.76718 2.96216 5.89406 2.85471 6.10905 2.85471H6.6658C7.44659 2.85471 8.01329 2.96727 8.36482 3.19147C8.71617 3.41622 8.83338 3.88997 8.71617 4.61238Z" fill="#003087"/>
<path d="M60.5952 0.247253H58.4277C58.2123 0.247253 58.0855 0.354702 58.0468 0.569687L56.1427 12.756L56.1133 12.8146C56.1133 12.9127 56.1523 13.0051 56.2307 13.093C56.3083 13.1807 56.4064 13.2247 56.5235 13.2247H58.4572C58.8276 13.2247 59.0327 13.0395 59.0724 12.6682L60.9764 0.686894V0.657794C60.9763 0.38425 60.8489 0.247613 60.5952 0.247613V0.247253Z" fill="#009CDE"/>
<path d="M34.405 4.96429C34.405 4.86687 34.3657 4.77393 34.2881 4.68627C34.2098 4.59843 34.1218 4.5542 34.0244 4.5542H31.7688C31.5536 4.5542 31.3778 4.65233 31.2413 4.84708L28.1363 9.4171L26.8474 5.02303C26.7492 4.7108 26.5347 4.5542 26.2029 4.5542H24.0055C23.9077 4.5542 23.8198 4.59825 23.7422 4.68627C23.6639 4.77393 23.625 4.86705 23.625 4.96429C23.625 5.0036 23.8155 5.57952 24.1962 6.69268C24.5769 7.80619 24.987 9.00728 25.4265 10.2963C25.8659 11.585 26.0952 12.2689 26.1148 12.3464C24.5133 14.534 23.7129 15.7057 23.7129 15.8617C23.7129 16.1158 23.8396 16.2426 24.0937 16.2426H26.3493C26.5641 16.2426 26.7397 16.1452 26.8767 15.9498L34.3468 5.16925C34.3855 5.13057 34.405 5.06252 34.405 4.9642V4.96429Z" fill="#003087"/>
<path d="M55.411 4.55417H53.1846C52.9109 4.55417 52.7455 4.87651 52.6869 5.52111C52.1785 4.74014 51.2515 4.34912 49.9036 4.34912C48.4976 4.34912 47.3012 4.87651 46.3152 5.93111C45.3289 6.98571 44.8359 8.22619 44.8359 9.65166C44.8359 10.8041 45.1728 11.7219 45.8464 12.4052C46.5202 13.0892 47.4233 13.4305 48.5564 13.4305C49.1227 13.4305 49.6988 13.3131 50.2846 13.079C50.8705 12.8446 51.329 12.5323 51.6616 12.1416C51.6616 12.1612 51.6417 12.2488 51.6031 12.4049C51.5636 12.5614 51.5443 12.679 51.5443 12.7565C51.5443 13.0693 51.671 13.2251 51.9252 13.2251H53.9467C54.3173 13.2251 54.5324 13.0399 54.5908 12.6686L55.792 5.02282C55.8113 4.90552 55.7821 4.79834 55.7041 4.70056C55.6256 4.60314 55.5281 4.55417 55.411 4.55417ZM51.5882 10.3254C51.0902 10.8136 50.4896 11.0576 49.7866 11.0576C49.22 11.0576 48.7615 10.9016 48.4097 10.589C48.058 10.2772 47.8823 9.84748 47.8823 9.30004C47.8823 8.57799 48.1264 7.96715 48.6149 7.46922C49.1024 6.9712 49.7084 6.72228 50.431 6.72228C50.9774 6.72228 51.4315 6.88336 51.7932 7.20544C52.1541 7.52778 52.3353 7.97208 52.3353 8.53859C52.3352 9.24157 52.0861 9.83737 51.5882 10.3254Z" fill="#009CDE"/>
<path d="M22.134 4.55417H19.9075C19.6337 4.55417 19.4681 4.87651 19.4094 5.52111C18.8821 4.74014 17.9544 4.34912 16.6265 4.34912C15.2203 4.34912 14.024 4.87651 13.0379 5.93111C12.0515 6.98571 11.5586 8.22619 11.5586 9.65166C11.5586 10.8041 11.8955 11.7219 12.5693 12.4052C13.2431 13.0892 14.1461 13.4305 15.279 13.4305C15.8255 13.4305 16.3922 13.3131 16.978 13.079C17.5638 12.8446 18.0326 12.5323 18.3841 12.1416C18.3058 12.3757 18.2669 12.5809 18.2669 12.7565C18.2669 13.0693 18.3938 13.2251 18.6477 13.2251H20.669C21.0398 13.2251 21.2548 13.0399 21.3135 12.6686L22.5145 5.02282C22.5337 4.90552 22.5046 4.79834 22.4267 4.70056C22.3485 4.60314 22.251 4.55417 22.134 4.55417ZM18.3111 10.3399C17.8129 10.8189 17.2024 11.0576 16.4802 11.0576C15.9135 11.0576 15.4595 10.9016 15.118 10.589C14.776 10.2772 14.6053 9.84748 14.6053 9.30004C14.6053 8.57799 14.8493 7.96715 15.3377 7.46922C15.8256 6.9712 16.4311 6.72219 17.1539 6.72219C17.7005 6.72219 18.1545 6.88336 18.5162 7.20544C18.8772 7.52778 19.0581 7.97208 19.0581 8.53859C19.058 9.26118 18.8091 9.8619 18.3111 10.3399Z" fill="#003087"/>
<path d="M44.4103 1.02351C43.6583 0.506503 42.6772 0.247375 41.4663 0.247375H36.8084C36.4178 0.247375 36.2028 0.432991 36.164 0.803864L34.2599 12.7556C34.2401 12.873 34.2695 12.9804 34.3478 13.078C34.4253 13.1757 34.5234 13.2244 34.6406 13.2244H37.0426C37.2769 13.2244 37.4331 13.0976 37.5114 12.8436L38.0387 9.4457C38.0582 9.28954 38.1265 9.16258 38.2439 9.0648C38.3611 8.9672 38.5074 8.90336 38.6833 8.87417C38.8589 8.84516 39.0246 8.83047 39.1813 8.83047C39.3374 8.83047 39.5228 8.84041 39.7377 8.85984C39.9525 8.87927 40.0896 8.88885 40.1478 8.88885C41.8276 8.88885 43.1455 8.41563 44.1026 7.46813C45.0596 6.52115 45.538 5.20796 45.538 3.52802C45.5381 2.37582 45.162 1.54096 44.4103 1.02324V1.02351ZM41.4077 5.84244C40.978 6.13533 40.3334 6.28172 39.4744 6.28172L38.5368 6.31109L39.0349 3.17649C39.0735 2.96195 39.2005 2.85432 39.4156 2.85432H39.9427C40.3724 2.85432 40.7141 2.87393 40.9684 2.91288C41.2218 2.9521 41.4663 3.07396 41.7006 3.27892C41.9351 3.48406 42.0522 3.78204 42.0522 4.17244C42.0522 4.99298 41.8371 5.54929 41.4077 5.84244Z" fill="#009CDE"/>
</svg>
