<svg width="61" height="39" viewBox="0 0 61 39" fill="none" xmlns="http://www.w3.org/2000/svg">
<path d="M12.7291 0.302612H27.696C29.7846 0.302612 31.0898 2.02708 30.6003 4.13605L23.6279 34.3537C23.1385 36.4626 21.0391 38.1871 18.9506 38.1871H3.98367C1.8951 38.1871 0.589917 36.4627 1.07942 34.3537L8.05162 4.13605C8.54113 2.01615 10.6296 0.302612 12.7181 0.302612H12.7291Z" fill="#D10429"/>
<path d="M26.3861 0.302612H43.6056C45.6938 0.302612 44.7476 2.02708 44.2582 4.13605L37.2857 34.3537C36.7961 36.4626 36.9484 38.1871 34.8599 38.1871H17.6415C15.5422 38.1871 14.2477 36.4627 14.7481 34.3537L21.7206 4.13605C22.21 2.01615 24.2984 0.302612 26.3979 0.302612H26.3869H26.3861Z" fill="#022E64"/>
<path d="M43.0032 0.302612H57.9701C60.0586 0.302612 61.3639 2.02708 60.8745 4.13605L53.902 34.3537C53.4126 36.4626 51.3132 38.1871 49.2247 38.1871H34.2578C32.1584 38.1871 30.8639 36.4627 31.3534 34.3537L38.3259 4.13605C38.8153 2.01615 40.9038 0.302612 42.9922 0.302612H43.0032Z" fill="#076F74"/>
<path d="M40.4894 28.7902H41.9034L42.3058 27.4171H40.9026L40.4894 28.7902ZM41.6206 25.0114L41.131 26.6371C41.131 26.6371 41.6641 26.3625 41.9577 26.2746C42.2515 26.2087 42.6865 26.1537 42.6865 26.1537L43.0236 25.0224H41.6098L41.6206 25.0114ZM42.3276 22.6828L41.8599 24.2426C41.8599 24.2426 42.382 24.0008 42.6756 23.9242C42.9694 23.8473 43.4044 23.8253 43.4044 23.8253L43.7415 22.6939H42.3385L42.3276 22.6828ZM45.4494 22.6828L43.622 28.779H44.1114L43.7308 30.0422H43.2412L43.1217 30.4266H41.3811L41.5009 30.0422H37.9766L38.3246 28.878H38.6837L40.533 22.6829L40.9028 21.4307H42.6757L42.4907 22.0568C42.4907 22.0568 42.9584 21.7163 43.4154 21.5953C43.8615 21.4747 46.4285 21.4307 46.4285 21.4307L46.0477 22.672H45.4386L45.4494 22.6828Z" fill="#FEFEFE"/>
<path d="M46.1724 21.4301H48.0651L48.0868 22.144C48.0761 22.2648 48.1739 22.3198 48.4024 22.3198H48.783L48.435 23.4952H47.4123C46.5314 23.5611 46.1941 23.1767 46.2159 22.7483L46.1832 21.441L46.1724 21.4301ZM46.4055 27.0221H44.5999L44.9043 25.9786H46.971L47.2646 25.0229H45.2306L45.5787 23.8476H51.235L50.8868 25.0229H48.9833L48.6898 25.9786H50.5933L50.2777 27.0221H48.2218L47.852 27.4614H48.6897L48.8962 28.7795C48.918 28.9113 48.918 28.9992 48.9615 29.0542C49.005 29.0981 49.2553 29.1201 49.3965 29.1201H49.6468L49.2553 30.4053H48.6134C48.5156 30.4053 48.3633 30.3944 48.1565 30.3944C47.9607 30.3723 47.8303 30.2625 47.6997 30.1966C47.58 30.1417 47.4061 29.9988 47.3626 29.7463L47.1668 28.4282L46.2313 29.7243C45.9375 30.1307 45.5354 30.4492 44.8498 30.4492H43.5446L43.8927 29.3068H44.3932C44.5347 29.3068 44.6652 29.252 44.7632 29.1969C44.861 29.153 44.948 29.1091 45.035 28.9664L46.4055 27.0221ZM26.6549 24.163H31.43L31.0819 25.3164H29.1783L28.8847 26.2938H30.8427L30.4837 27.4802H28.5366L28.058 29.0729C28.0037 29.2487 28.5258 29.2706 28.7107 29.2706L29.6896 29.1388L29.2979 30.4569H27.1007C26.9268 30.4569 26.7963 30.4349 26.6003 30.391C26.4153 30.3471 26.3284 30.2592 26.2523 30.1384C26.176 30.0066 26.0455 29.9077 26.1325 29.6221L26.7634 27.5133H25.6758L26.0347 26.305H27.1224L27.4161 25.3274H26.3285L26.6767 24.1739L26.6549 24.163ZM29.9541 22.0781H31.9119L31.553 23.2753H28.8771L28.5834 23.528C28.4528 23.6489 28.4203 23.605 28.257 23.6928C28.1049 23.7696 27.7894 23.9234 27.376 23.9234H26.5167L26.8647 22.7701H27.1258C27.3434 22.7701 27.4958 22.748 27.5718 22.7042C27.6588 22.6493 27.7568 22.5284 27.8545 22.3306L28.3439 21.43H30.2913L29.9541 22.089V22.0781ZM33.6441 24.0553C33.6441 24.0553 34.177 23.5611 35.0909 23.4074C35.2976 23.3634 36.6029 23.3852 36.6029 23.3852L36.7987 22.7261H34.0467L33.6441 24.0663V24.0553ZM36.2329 24.5605H33.5026L33.3396 25.1207H35.7108C35.9937 25.0878 36.0481 25.1316 36.0699 25.1098L36.2438 24.5605H36.2329ZM32.6871 21.441H34.3512L34.1121 22.2869C34.1121 22.2869 34.6342 21.8585 35.0039 21.7047C35.3738 21.5728 36.2003 21.441 36.2003 21.441L38.8979 21.4301L37.9735 24.5276C37.8212 25.0549 37.6362 25.3955 37.5274 25.5602C37.4296 25.7139 37.3098 25.8567 37.0706 25.9885C36.8423 26.1094 36.6353 26.1862 36.4397 26.1972C36.2656 26.2082 35.9829 26.2192 35.613 26.2192H33.0133L32.2845 28.6686C32.2194 28.9103 32.1867 29.031 32.2303 29.0969C32.2627 29.1518 32.3606 29.2178 32.4803 29.2178L33.6224 29.1079L33.2308 30.448H31.9473C31.534 30.448 31.2402 30.4371 31.0336 30.4259C30.8378 30.404 30.631 30.4259 30.4897 30.3162C30.3701 30.2063 30.1853 30.0636 30.196 29.9206C30.207 29.7888 30.2613 29.5691 30.3484 29.2616L32.6871 21.441Z" fill="#FEFEFE"/>
<path d="M37.5382 26.3703L37.3859 27.1171C37.3208 27.3477 37.2663 27.5236 37.0923 27.6773C36.9073 27.8311 36.7007 27.9958 36.2005 27.9958L35.2758 28.0398L35.2649 28.8746C35.254 29.1051 35.3194 29.0831 35.3519 29.1271C35.3955 29.171 35.4279 29.182 35.4714 29.204L35.7652 29.1819L36.6464 29.1381L36.2764 30.3683H35.2649C34.5578 30.3683 34.0249 30.3462 33.8617 30.2145C33.6876 30.1046 33.6658 29.9728 33.6658 29.7311L33.7311 26.4578H35.3519L35.3302 27.1278H35.7217C35.8523 27.1278 35.9502 27.1169 36.0046 27.0839C36.0588 27.051 36.0916 26.996 36.1134 26.9192L36.2764 26.3919H37.5492L37.5382 26.3703ZM14.4797 9.97278C14.4254 10.2364 13.3812 15.0804 13.3812 15.0804C13.1527 16.0579 12.9895 16.761 12.4457 17.2113C12.1302 17.4749 11.7604 17.5957 11.3362 17.5957C10.6509 17.5957 10.2593 17.2553 10.1941 16.6072L10.1831 16.3876C10.1831 16.3876 10.3898 15.0804 10.3898 15.0695C10.3898 15.0695 11.4776 10.6538 11.6734 10.0716C11.6842 10.0387 11.6842 10.0167 11.6842 10.0057C9.56308 10.0278 9.18247 10.0057 9.16072 9.97278C9.14978 10.0167 9.09544 10.2913 9.09544 10.2913L7.98588 15.2673L7.88791 15.6846L7.70312 17.0687C7.70312 17.4751 7.77923 17.8155 7.94247 18.0902C8.45363 18.9909 9.90039 19.1227 10.7162 19.1227C11.7713 19.1227 12.7611 18.892 13.4246 18.4856C14.5885 17.7935 14.893 16.7062 15.1541 15.7506L15.2847 15.2562C15.2847 15.2562 16.405 10.6759 16.6009 10.0827C16.6117 10.0497 16.6117 10.0278 16.6226 10.0168C15.078 10.0278 14.632 10.0168 14.4797 9.98382V9.97278ZM20.6844 19.0779C19.9338 19.0669 19.6618 19.0669 18.7808 19.1108L18.7481 19.0449C18.8242 18.7043 18.9112 18.3749 18.9765 18.0344L19.0853 17.573C19.2484 16.8591 19.4007 16.0133 19.4225 15.7607C19.4443 15.6069 19.4877 15.2225 19.0526 15.2225C18.8677 15.2225 18.6828 15.3103 18.4871 15.3981C18.3782 15.7826 18.1716 16.8591 18.0628 17.3424C17.8452 18.3749 17.8344 18.4957 17.7365 19.0011L17.6712 19.0669C16.899 19.0559 16.627 19.0559 15.7351 19.0999L15.6915 19.0229C15.8439 18.4078 15.9852 17.7927 16.1267 17.1776C16.4965 15.5189 16.5945 14.8819 16.6922 14.0361L16.7684 13.9922C17.6386 13.8714 17.8453 13.8384 18.7916 13.6517L18.8677 13.7396L18.7263 14.2668C18.8895 14.168 19.0418 14.0691 19.2049 13.9922C19.6509 13.7725 20.1404 13.7066 20.4123 13.7066C20.8256 13.7066 21.2826 13.8275 21.4675 14.3108C21.6415 14.7391 21.5326 15.2663 21.2934 16.3099L21.1738 16.8371C20.9344 18.0015 20.891 18.2101 20.7604 19.001L20.6734 19.0669L20.6844 19.0779ZM23.7387 19.0807C23.2819 19.0807 22.9882 19.0698 22.7055 19.0807C22.4226 19.0807 22.1507 19.1028 21.7265 19.1138L21.7047 19.0807L21.6829 19.0368C21.8026 18.5974 21.857 18.4437 21.9223 18.2899C21.9766 18.1361 22.031 17.9823 22.1399 17.532C22.2703 16.9498 22.3573 16.5434 22.4117 16.1809C22.477 15.8404 22.5096 15.5439 22.5532 15.2034L22.5857 15.1814L22.6183 15.1485C23.0753 15.0826 23.3581 15.0387 23.6518 14.9947C23.9455 14.9508 24.25 14.8959 24.7177 14.808L24.7395 14.852L24.7503 14.8959L24.4894 15.9833C24.4024 16.3458 24.3154 16.7083 24.2393 17.0708C24.0759 17.8397 23.9999 18.1253 23.9673 18.3339C23.9238 18.5316 23.9128 18.6306 23.8475 19.026L23.804 19.0589L23.7605 19.0919L23.7387 19.0807ZM28.5677 16.382C28.5351 16.5797 28.361 17.3157 28.1326 17.6233C27.9694 17.8539 27.7845 17.9967 27.5669 17.9967C27.5017 17.9967 27.1317 17.9967 27.121 17.4365C27.121 17.1619 27.1754 16.8762 27.2406 16.5688C27.4365 15.679 27.6758 14.9431 28.274 14.9431C28.7419 14.9431 28.7743 15.4923 28.5677 16.382ZM30.5365 16.4699C30.7975 15.3055 30.591 14.7563 30.3408 14.4268C29.9492 13.9215 29.2531 13.7568 28.5352 13.7568C28.0999 13.7568 27.0776 13.8008 26.2727 14.5477C25.6962 15.0859 25.4243 15.8218 25.272 16.5248C25.1087 17.2388 24.9239 18.524 26.0986 19.0073C26.4574 19.1611 26.9796 19.2049 27.3168 19.2049C28.1762 19.2049 29.0573 18.9633 29.7208 18.2603C30.2319 17.6892 30.4603 16.8324 30.5474 16.4699H30.5365ZM48.8713 19.2112C47.9575 19.2003 47.6965 19.2003 46.8589 19.2442L46.8044 19.1783C47.0329 18.3105 47.2613 17.4317 47.4679 16.553C47.729 15.4107 47.7943 14.9273 47.8814 14.2574L47.9465 14.2025C48.8494 14.0707 49.0997 14.0378 50.0459 13.862L50.0676 13.9389C49.8936 14.6638 49.7305 15.3779 49.5565 16.0918C49.2085 17.5967 49.0886 18.3656 48.9583 19.1564L48.8713 19.2223V19.2112Z" fill="#FEFEFE"/>
<path d="M47.5569 16.5288C47.5134 16.7155 47.3393 17.4624 47.111 17.77C46.9587 17.9896 46.5889 18.1325 46.3821 18.1325C46.3169 18.1325 45.958 18.1325 45.9363 17.5833C45.9363 17.3086 45.9905 17.023 46.0558 16.7155C46.2516 15.8478 46.491 15.1118 47.0892 15.1118C47.5569 15.1118 47.7636 15.65 47.5569 16.5397V16.5288ZM49.3518 16.6167C49.6127 15.4523 48.5468 16.5179 48.3836 16.1334C48.1225 15.5292 48.2856 14.3209 47.2415 13.9146C46.839 13.7497 45.8927 13.9585 45.0878 14.7054C44.5222 15.2327 44.2393 15.9686 44.0871 16.6715C43.9237 17.3745 43.739 18.6708 44.9028 19.1211C45.2728 19.2858 45.6099 19.3297 45.947 19.3078C47.1219 19.2419 48.0137 17.4514 48.6775 16.7484C49.1883 16.1882 49.2755 16.9571 49.3518 16.6167ZM35.6935 19.0777C34.9429 19.0666 34.6818 19.0666 33.8008 19.1106L33.7682 19.0447C33.8444 18.7041 33.9314 18.3747 34.0073 18.0341L34.1053 17.5728C34.2685 16.8589 34.4316 16.013 34.4423 15.7604C34.4641 15.6067 34.5076 15.2223 34.0835 15.2223C33.8985 15.2223 33.7029 15.31 33.5179 15.3979C33.4199 15.7824 33.2023 16.8589 33.0935 17.3422C32.887 18.3747 32.8652 18.4954 32.7673 19.0008L32.702 19.0666C31.9299 19.0557 31.6578 19.0557 30.7659 19.0996L30.7224 19.0227C30.8747 18.4076 31.0161 17.7925 31.1576 17.1773C31.5274 15.5187 31.6144 14.8817 31.723 14.0359L31.7883 13.9919C32.6587 13.8711 32.8762 13.8381 33.8115 13.6515L33.8879 13.7393L33.7573 14.2666C33.9096 14.1678 34.0727 14.0689 34.225 13.9919C34.6711 13.7722 35.1605 13.7063 35.4323 13.7063C35.8458 13.7063 36.2917 13.8272 36.4873 14.3105C36.6614 14.7388 36.542 15.2661 36.3025 16.3096L36.1828 16.8369C35.9327 18.0012 35.9001 18.2099 35.7693 19.0007L35.6825 19.0666L35.6935 19.0777ZM42.2105 9.98347L41.5796 9.9945C39.9479 10.0165 39.2953 10.0054 39.0343 9.97253C39.0125 10.0934 38.969 10.3021 38.969 10.3021C38.969 10.3021 38.3816 13.0261 38.3816 13.0371C38.3816 13.0371 36.9893 18.8367 36.924 19.1113C38.3491 19.0893 38.9255 19.0893 39.1758 19.1223C39.2302 18.8477 39.5564 17.2331 39.5673 17.2331C39.5673 17.2331 39.8502 16.0468 39.8611 16.0028C39.8611 16.0028 39.9479 15.8819 40.0349 15.8271H40.1655C41.3948 15.8271 42.7761 15.8271 43.864 15.0253C44.6036 14.4761 45.104 13.6522 45.3325 12.6636C45.3867 12.422 45.4302 12.1364 45.4302 11.8399C45.4302 11.4554 45.3542 11.082 45.1367 10.7854C44.5818 10.0054 43.483 9.9945 42.2105 9.98347ZM43.0263 12.8284C42.8958 13.4325 42.5042 13.9488 42.0039 14.1905C41.5904 14.3991 41.0902 14.4211 40.5681 14.4211H40.2308L40.2525 14.2893C40.2525 14.2893 40.8727 11.5652 40.8727 11.5762L40.8942 11.4334L40.9052 11.3235L41.1554 11.3456C41.1554 11.3456 42.439 11.4554 42.4607 11.4554C42.961 11.6531 43.1786 12.1583 43.0263 12.8284ZM56.3976 13.7393L56.3214 13.6515C55.397 13.8381 55.2229 13.8711 54.3745 13.992L54.3092 14.0578C54.3092 14.0689 54.2982 14.0799 54.2982 14.1018V14.0908C53.6674 15.5736 53.6783 15.2552 53.167 16.4195C53.167 16.3645 53.167 16.3316 53.1561 16.2766L53.0255 13.7503L52.9493 13.6624C51.9703 13.8492 51.9487 13.8821 51.0567 14.003L50.9914 14.0689C50.9805 14.1018 50.9805 14.1348 50.9805 14.1677L50.9914 14.1787C51.1002 14.7608 51.0785 14.629 51.1872 15.5407C51.2417 15.991 51.307 16.4415 51.3611 16.8808C51.4481 17.6277 51.5028 17.9902 51.6114 19.1216C51.0022 20.132 50.8608 20.5165 50.2734 21.4061L50.3061 21.494C51.1872 21.4612 51.3829 21.4612 52.0355 21.4612L52.1772 21.2964C52.6664 20.2311 56.4084 13.7504 56.4084 13.7504L56.3976 13.7393ZM24.5781 14.4669C25.0784 14.1154 25.1436 13.6321 24.7195 13.3795C24.2952 13.1268 23.5447 13.2038 23.0443 13.5553C22.544 13.8958 22.4896 14.379 22.9139 14.6427C23.3272 14.8844 24.0778 14.8184 24.5781 14.4669Z" fill="#FEFEFE"/>
<path d="M52.0316 21.4417L51.3026 22.705C51.0742 23.1333 50.6392 23.4629 49.9648 23.4629L48.8008 23.4409L49.1381 22.2985H49.3664C49.4861 22.2985 49.5731 22.2876 49.6384 22.2546C49.7037 22.2326 49.7364 22.1887 49.7907 22.1228L50.2258 21.4308H52.0422L52.0316 21.4417Z" fill="#FEFEFE"/>
</svg>
