<svg width="61" height="19" viewBox="0 0 61 19" fill="none" xmlns="http://www.w3.org/2000/svg">
<path d="M22.1706 18.2254L25.2051 0.418477H30.0587L27.022 18.2254H22.1706ZM44.5575 0.80234C43.5961 0.441581 42.0892 0.0544434 40.2076 0.0544434C35.4115 0.0544434 32.0334 2.4696 32.0045 5.93101C31.9774 8.4897 34.4163 9.91718 36.2573 10.7689C38.1467 11.6419 38.7817 12.1984 38.7726 12.9777C38.7605 14.1714 37.2639 14.7165 35.8687 14.7165C33.9262 14.7165 32.8942 14.4466 31.3001 13.782L30.6745 13.499L29.9935 17.4852C31.1271 17.9825 33.2234 18.4129 35.4001 18.4353C40.5022 18.4353 43.8143 16.0477 43.852 12.3513C43.8701 10.3255 42.5771 8.78415 39.7768 7.51312C38.0803 6.68936 37.0413 6.13968 37.0523 5.30555C37.0523 4.56538 37.9318 3.77391 39.8322 3.77391C41.4191 3.74926 42.5691 4.09538 43.4649 4.45614L43.8998 4.66162L44.5575 0.80234ZM57.0476 0.418203H53.2972C52.1354 0.418203 51.2658 0.7353 50.7557 1.89489L43.5474 18.2136H48.6441C48.6441 18.2136 49.4772 16.0195 49.6657 15.5377C50.2227 15.5377 55.174 15.5453 55.8817 15.5453C56.0269 16.1688 56.4723 18.2136 56.4723 18.2136H60.976L57.0476 0.417658V0.418203ZM51.0971 11.9168C51.4986 10.8908 53.031 6.93897 53.031 6.93897C53.0024 6.98636 53.4295 5.90799 53.6744 5.23942L54.0025 6.77469C54.0025 6.77469 54.9318 11.0253 55.1261 11.9165H51.0971V11.9168ZM18.0503 0.418203L13.2985 12.5617L12.7923 10.094C11.9076 7.24924 9.1515 4.16715 6.07031 2.62414L10.4153 18.197L15.5506 18.1913L23.1919 0.418021L18.0503 0.417931" fill="#0E4595"/>
<path d="M8.86513 0.417603H1.0386L0.976562 0.788094C7.06552 2.26206 11.0944 5.82407 12.7672 10.1045L11.0653 1.92149C10.7716 0.793915 9.91948 0.457352 8.86531 0.418056" fill="#F2AE14"/>
</svg>
