<svg xmlns="http://www.w3.org/2000/svg" viewBox="0 0 750 471" width="50" height="32">
  <rect fill="#000" width="750" height="471" rx="40"/>
  <g fill="#fff">
    <path d="M187.2 181.6c-8.6 10.2-22.4 18.2-36.2 17-1.8-14 5-28.8 12.8-38 8.6-10.6 23.6-18 35.8-18.4 1.4 14.4-4.2 28.6-12.4 39.4m12.2 20c-20 1.2-37 11.8-46.6 11.8-9.6 0-24.4-11.2-40.2-10.8-20.6.4-39.8 12-50.4 30.6-21.6 37.4-5.6 92.8 15.4 123.2 10.2 15 22.4 31.6 38.4 31 15.4-.6 21.2-10 39.8-10s23.8 10 40 9.6c16.6-.4 27-15 37.2-30 11.6-17.2 16.4-33.8 16.6-34.6-.4-.2-32-12.4-32.4-48.8-.2-30.4 24.8-45 26-45.8-14.2-21-36.4-23.4-44.2-24.2"/>
    <path d="M373.8 135.8c44.8 0 76 30.8 76 75.8s-31.8 76.2-77.2 76.2h-49.4v79h-36.4V135.8h87zm-50.6 122h41c31.2 0 49-16.6 49-45.8 0-29.2-17.8-45.6-48.8-45.6h-41.2v91.4z"/>
    <path d="M469.4 313.6c0-24.8 19-40.2 52.6-42l38.8-2.2v-11c0-15.8-10.6-25.2-28.4-25.2-16.8 0-27.4 8.4-30 21.4h-33c1.6-29.2 26.4-50.8 64-50.8 37.4 0 62.4 19.8 62.4 50.4v105.6h-33.6v-25.2h-.8c-10 17-31.6 28-53.6 28-33.2 0-56.4-20.6-56.4-49zm91.4-12.8v-11.4l-34.8 2.2c-17.4 1.2-27.2 9.2-27.2 22 0 13 10.2 21.6 26.2 21.6 20.8 0 35.8-14.2 35.8-34.4z"/>
    <path d="M605.6 400.4l33.2 9.8c3.4-20.8 16.4-32 40.6-32 19.6 0 32.4 9.4 32.4 23.6 0 14.6-10.4 21.8-36 27l-28 5.6c-34.8 7-54.4 25.6-54.4 52 0 31.4 26.6 52.6 63.8 52.6 29.8 0 52.6-11.6 60.6-32h.8v29h34V406c0-35.4-28.8-58-71.6-58-41.8 0-71.6 22.8-75.4 52.4zm106.4 47.6v12c0 21.8-18 38.4-42.4 38.4-17.4 0-29.6-8.8-29.6-23 0-13.4 10.4-21.6 31-26l41-8.4z"/>
  </g>
</svg>
