<svg width="1681" height="1091" viewBox="0 0 1681 1091" fill="none" xmlns="http://www.w3.org/2000/svg">
<path d="M76.6833 772.192C76.6833 786.183 78.5668 798.829 82.3337 810.13C86.6387 820.893 92.5581 830.041 100.092 837.575C108.164 844.57 118.119 850.221 129.958 854.526L116.236 889.235C86.6387 880.087 65.1136 866.096 51.6604 847.261C38.2071 828.427 31.4805 803.404 31.4805 772.192V313.706H76.6833V475.145H174.354L154.981 517.119H76.6833V772.192ZM240.903 770.578C240.903 785.107 243.055 797.484 247.361 807.709C252.204 817.395 258.661 825.467 266.733 831.924C274.805 837.844 284.222 842.418 294.985 845.647C306.286 848.337 318.393 849.683 331.309 849.683C351.219 849.683 370.861 846.723 390.234 840.804C409.606 834.346 429.248 826.005 449.159 815.781L466.917 850.49C447.006 862.329 425.212 871.746 401.534 878.742C377.857 885.199 355.793 888.428 335.345 888.428C314.896 888.428 296.061 886.544 278.841 882.778C261.621 879.011 246.822 872.553 234.445 863.405C222.068 854.257 212.382 842.149 205.386 827.081C198.929 812.014 195.7 793.179 195.7 770.578V605.103C195.7 574.43 202.158 548.869 215.073 528.42C227.988 507.971 245.746 492.634 268.348 482.41C290.949 472.185 316.51 467.073 345.031 467.073C374.09 467.073 399.113 472.185 420.1 482.41C441.625 492.634 458.038 507.702 469.339 527.613C481.177 547.523 487.097 572.546 487.097 602.682V707.617L240.903 720.532V770.578ZM441.894 597.031C441.894 578.197 437.589 562.053 428.979 548.6C420.369 534.608 408.799 523.846 394.27 516.312C379.74 508.778 363.058 505.011 344.224 505.011C323.237 505.011 304.94 509.047 289.335 517.119C273.729 524.653 261.621 535.954 253.011 551.021C244.939 566.089 240.903 584.385 240.903 605.91V676.136L441.894 667.257V597.031ZM778.878 529.227C764.887 522.769 749.281 517.926 732.061 514.698C715.379 510.931 699.235 508.778 683.629 508.24C658.337 508.24 637.888 513.352 622.283 523.577C606.677 533.801 595.376 548.061 588.381 566.358C581.385 584.116 577.618 604.565 577.08 627.705L576.273 728.604C576.273 749.053 578.156 766.811 581.923 781.878C586.228 796.408 592.955 808.247 602.103 817.395C611.251 826.543 622.821 833.539 636.812 838.382C650.804 842.687 667.486 845.109 686.858 845.647C698.697 845.647 710.267 845.109 721.567 844.032C733.406 842.956 743.9 841.611 753.048 839.996C762.734 838.382 770.268 837.037 775.649 835.96C781.031 834.884 783.452 834.346 782.914 834.346L791.793 874.706C775.111 879.011 757.622 882.239 739.326 884.392C721.029 887.083 703.002 888.159 685.244 887.621C654.57 887.083 627.664 881.701 604.524 871.477C581.385 860.714 563.358 844.57 550.443 823.045C538.066 800.982 531.877 772.73 531.877 738.29V621.247C531.877 590.574 537.258 563.667 548.021 540.528C559.322 517.388 576.004 499.361 598.067 486.446C620.668 473.531 648.651 467.073 682.015 467.073C700.311 467.073 718.608 469.495 736.904 474.338C755.739 479.181 773.497 485.37 790.179 492.903L778.878 529.227ZM885.951 501.782C896.175 494.787 907.476 488.867 919.853 484.024C932.23 478.643 944.876 474.607 957.791 471.916C971.244 468.688 984.698 467.073 998.151 467.073C1015.91 467.073 1032.05 468.957 1046.58 472.723C1061.65 476.49 1074.83 482.141 1086.13 489.675C1097.44 496.67 1106.85 505.549 1114.39 516.312C1122.46 526.536 1128.38 538.644 1132.14 552.636C1136.45 566.627 1138.6 582.233 1138.6 599.453V878.742H1093.4V601.874C1093.4 583.578 1090.44 568.51 1084.52 556.672C1078.6 544.295 1070.53 534.608 1060.3 527.613C1050.62 520.079 1039.59 514.967 1027.21 512.276C1014.83 509.047 1002.19 507.433 989.272 507.433C976.895 507.433 964.787 508.509 952.948 510.662C941.647 512.814 930.347 516.043 919.046 520.348C908.283 524.115 897.252 529.227 885.951 535.685V878.742H839.941V313.706H885.951V501.782Z" fill="white"/>
<path d="M1556.29 884.4L1503.86 828.763C1492.38 838.903 1479.57 848.109 1465.43 856.382C1451.55 864.387 1436.74 871.191 1421 876.795C1405.52 882.399 1389.38 886.669 1372.57 889.604C1355.76 892.539 1338.81 894.007 1321.73 894.007C1292.91 894.007 1266.9 890.271 1243.68 882.799C1220.47 875.328 1200.59 864.787 1184.04 851.178C1167.76 837.302 1155.09 820.758 1146.02 801.545C1137.21 782.332 1132.81 760.984 1132.81 737.501C1132.81 671.59 1176.57 616.086 1264.09 570.989C1223.8 521.089 1203.65 476.793 1203.65 438.1C1203.65 418.086 1207.52 399.674 1215.26 382.863C1223.27 366.051 1234.34 351.642 1248.48 339.634C1262.63 327.359 1279.44 317.752 1298.92 310.814C1318.66 303.876 1340.15 300.407 1363.36 300.407C1385.51 300.407 1405.52 303.476 1423.4 309.613C1441.55 315.751 1457.02 324.29 1469.83 335.231C1482.64 346.171 1492.51 359.247 1499.45 374.457C1506.39 389.4 1509.86 405.678 1509.86 423.29C1509.86 440.635 1507.59 456.379 1503.06 470.522C1498.79 484.398 1491.71 497.473 1481.84 509.748C1472.23 522.023 1459.43 533.764 1443.42 544.972C1427.67 556.179 1408.32 567.387 1385.38 578.595C1406.46 601.276 1427.67 623.825 1449.02 646.24C1470.63 668.655 1492.51 691.204 1514.66 713.886C1520.27 705.347 1525.34 695.74 1529.87 685.066C1534.68 674.392 1538.68 663.185 1541.88 651.444C1545.35 639.702 1548.02 627.561 1549.89 615.019C1551.75 602.477 1552.69 590.202 1552.69 578.194H1633.94C1633.94 651.577 1610.73 715.754 1564.3 770.724C1576.3 783.532 1591.38 799.276 1609.53 817.956C1627.94 836.635 1649.55 858.783 1674.37 884.4H1556.29ZM1426.2 430.495C1426.2 421.689 1424.47 413.417 1421 405.678C1417.8 397.94 1413.4 391.268 1407.79 385.665C1402.19 379.794 1395.65 375.258 1388.18 372.055C1380.71 368.586 1372.7 366.852 1364.16 366.852C1352.95 366.852 1342.68 368.586 1333.34 372.055C1324.27 375.258 1316.4 380.061 1309.73 386.465C1303.32 392.603 1298.25 399.941 1294.51 408.48C1291.05 417.019 1289.31 426.492 1289.31 436.899C1289.31 461.449 1306.79 493.204 1341.75 532.163C1398.05 503.344 1426.2 469.454 1426.2 430.495ZM1455.42 776.728C1424.2 744.439 1375.37 692.404 1308.92 620.623C1279.57 635.833 1258.36 652.111 1245.28 669.456C1232.47 686.801 1226.07 707.081 1226.07 730.297C1226.07 744.439 1228.6 757.248 1233.67 768.723C1239.01 779.93 1246.22 789.537 1255.29 797.542C1264.36 805.547 1275.04 811.685 1287.31 815.954C1299.85 820.224 1313.33 822.359 1327.74 822.359C1377.9 822.359 1420.47 807.148 1455.42 776.728Z" fill="white"/>
</svg>
